<svg xmlns="http://www.w3.org/2000/svg" xmlns:xlink="http://www.w3.org/1999/xlink" width="134.067" height="99.25" viewBox="0 0 134.067 99.25">
  <defs>
    <clipPath id="clip-path">
      <rect id="Rectangle_322" data-name="Rectangle 322" width="49.811" height="32.588" fill="none"/>
    </clipPath>
    <clipPath id="clip-path-3">
      <rect id="Rectangle_319" data-name="Rectangle 319" width="32.588" height="32.588" fill="#f8b84e"/>
    </clipPath>
    <clipPath id="clip-path-4">
      <rect id="Rectangle_320" data-name="Rectangle 320" width="32.588" height="32.588" fill="#152a68"/>
    </clipPath>
  </defs>
  <g id="Group_358" data-name="Group 358" transform="translate(-2841.091 -5821.119)">
    <g id="Mask_Group_155" data-name="Mask Group 155" transform="translate(2841.091 5821.119)" clip-path="url(#clip-path)">
      <g id="Group_154" data-name="Group 154">
        <g id="Group_153" data-name="Group 153" clip-path="url(#clip-path)">
          <g id="Group_149" data-name="Group 149" transform="translate(17.222)" opacity="0.8">
            <g id="Group_148" data-name="Group 148">
              <g id="Group_147" data-name="Group 147" clip-path="url(#clip-path-3)">
                <path id="Path_1110" data-name="Path 1110" d="M116.242,30.242h0a8.01,8.01,0,0,1-11.328,0L88.346,13.675A8.01,8.01,0,0,1,99.675,2.346l16.568,16.568a8.01,8.01,0,0,1,0,11.328" transform="translate(-86 0)" fill="#f8b84e"/>
              </g>
            </g>
          </g>
          <g id="Group_152" data-name="Group 152" opacity="0.8">
            <g id="Group_151" data-name="Group 151">
              <g id="Group_150" data-name="Group 150" clip-path="url(#clip-path-4)">
                <path id="Path_1111" data-name="Path 1111" d="M2.346,30.242h0a8.01,8.01,0,0,0,11.328,0L30.242,13.675A8.01,8.01,0,0,0,18.914,2.346L2.346,18.914a8.01,8.01,0,0,0,0,11.328" transform="translate(0 0)" fill="#152a68"/>
              </g>
            </g>
          </g>
        </g>
      </g>
    </g>
    <path id="Path_1112" data-name="Path 1112" d="M349.9,55.434a8.946,8.946,0,0,1-9.084-9.208,8.946,8.946,0,0,1,9.084-9.208,8.754,8.754,0,0,1,8.412,5.955l.156.458h-1.5l-.082-.228a7.309,7.309,0,0,0-6.983-4.81,7.586,7.586,0,0,0-7.678,7.833,7.587,7.587,0,0,0,7.678,7.833,7.309,7.309,0,0,0,6.983-4.81l.082-.228h1.5l-.156.458a8.754,8.754,0,0,1-8.412,5.955" transform="translate(2500.501 5864.935)" fill="#fff" opacity="0.4"/>
    <path id="Path_1113" data-name="Path 1113" d="M341.813,46.88a8.639,8.639,0,0,1,8.738-8.862,8.4,8.4,0,0,1,8.085,5.722h-.777a7.646,7.646,0,0,0-7.308-5.038,8.18,8.18,0,0,0,0,16.357,7.646,7.646,0,0,0,7.308-5.038h.777a8.4,8.4,0,0,1-8.085,5.722,8.639,8.639,0,0,1-8.738-8.863" transform="translate(2499.846 5864.279)" fill="#fff" opacity="0.4"/>
    <path id="Path_1114" data-name="Path 1114" d="M408.454,55.434a8.931,8.931,0,0,1-9.052-9.208,9.054,9.054,0,1,1,18.105,0,8.931,8.931,0,0,1-9.053,9.208m0-17.041a7.571,7.571,0,0,0-7.646,7.833,7.649,7.649,0,1,0,15.293,0,7.572,7.572,0,0,0-7.647-7.833" transform="translate(2462.156 5864.935)" fill="#fff" opacity="0.4"/>
    <path id="Path_1115" data-name="Path 1115" d="M417.816,46.88a8.708,8.708,0,1,1-8.707-8.862,8.613,8.613,0,0,1,8.707,8.862m-16.7,0a7.994,7.994,0,1,0,7.992-8.178,7.955,7.955,0,0,0-7.992,8.178" transform="translate(2461.502 5864.279)" fill="#fff" opacity="0.4"/>
    <path id="Path_1116" data-name="Path 1116" d="M476.423,55.123V43.831c0-3.507-1.8-5.438-5.065-5.438-4.041,0-6.651,3.075-6.651,7.833v8.9H463.3V37.329h1.407v3.406a7.134,7.134,0,0,1,6.62-3.716c4.133,0,6.5,2.483,6.5,6.813V55.123Z" transform="translate(2420.337 5864.935)" fill="#fff" opacity="0.4"/>
    <path id="Path_1117" data-name="Path 1117" d="M478.138,44.486V55.432h-.715V44.486c0-3.887-2.146-5.784-5.411-5.784-4.447,0-7,3.452-7,8.178v8.552H464.3v-17.1h.715v4.727a6.911,6.911,0,0,1,6.966-5.038c3.856,0,6.157,2.27,6.157,6.468" transform="translate(2419.683 5864.279)" fill="#fff" opacity="0.4"/>
    <path id="Path_1118" data-name="Path 1118" d="M532.223,55.123V43.831c0-3.507-1.8-5.438-5.065-5.438-4.041,0-6.651,3.075-6.651,7.833v8.9H519.1V37.329h1.407v3.406a7.134,7.134,0,0,1,6.62-3.716c4.133,0,6.5,2.483,6.5,6.813V55.123Z" transform="translate(2383.818 5864.935)" fill="#fff" opacity="0.4"/>
    <path id="Path_1119" data-name="Path 1119" d="M533.938,44.486V55.432h-.715V44.486c0-3.887-2.146-5.784-5.411-5.784-4.447,0-7,3.452-7,8.178v8.552H520.1v-17.1h.715v4.727a6.911,6.911,0,0,1,6.966-5.038c3.856,0,6.157,2.27,6.157,6.468" transform="translate(2383.164 5864.279)" fill="#fff" opacity="0.4"/>
    <path id="Path_1120" data-name="Path 1120" d="M581.222,55.434c-5.312,0-9.021-3.748-9.021-9.115,0-5.39,3.742-9.3,8.9-9.3,5.273,0,8.679,3.736,8.679,9.519v.346H573.624a7.213,7.213,0,0,0,7.6,7.176,7.122,7.122,0,0,0,6.626-3.6l.1-.189h1.526l-.221.488c-1.33,2.931-4.33,4.681-8.027,4.681m7.131-9.927c-.293-4.271-3.171-7.114-7.255-7.114a7.328,7.328,0,0,0-7.47,7.114Z" transform="translate(2349.065 5864.935)" fill="#fff" opacity="0.4"/>
    <path id="Path_1121" data-name="Path 1121" d="M588.811,51.265h.777c-1.368,3.016-4.447,4.478-7.712,4.478-5.006,0-8.676-3.452-8.676-8.769,0-5.256,3.607-8.956,8.552-8.956,5.193,0,8.334,3.7,8.334,9.173h-16.17c.155,4.851,3.42,7.868,7.961,7.868a7.451,7.451,0,0,0,6.935-3.794m-14.9-4.758h15.455c-.156-4.54-3.172-7.805-7.619-7.805-4.416,0-7.65,3.2-7.837,7.805" transform="translate(2348.411 5864.279)" fill="#fff" opacity="0.4"/>
    <path id="Path_1122" data-name="Path 1122" d="M640.054,55.434a8.946,8.946,0,0,1-9.084-9.208,8.946,8.946,0,0,1,9.084-9.208,8.753,8.753,0,0,1,8.412,5.955l.157.458h-1.5l-.082-.228a7.31,7.31,0,0,0-6.983-4.81,7.586,7.586,0,0,0-7.678,7.833,7.586,7.586,0,0,0,7.678,7.833,7.31,7.31,0,0,0,6.983-4.81l.082-.228h1.5l-.157.458a8.754,8.754,0,0,1-8.412,5.955" transform="translate(2310.603 5864.935)" fill="#fff" opacity="0.4"/>
    <path id="Path_1123" data-name="Path 1123" d="M631.97,46.88a8.639,8.639,0,0,1,8.738-8.862,8.4,8.4,0,0,1,8.085,5.722h-.777a7.646,7.646,0,0,0-7.308-5.038,8.18,8.18,0,0,0,0,16.357,7.646,7.646,0,0,0,7.308-5.038h.777a8.4,8.4,0,0,1-8.085,5.722,8.639,8.639,0,0,1-8.738-8.863" transform="translate(2309.949 5864.279)" fill="#fff" opacity="0.4"/>
    <path id="Path_1124" data-name="Path 1124" d="M696.626,47.03c-3.955,0-6.223-2.6-6.223-7.125V30.3h-3.545V28.925H690.4V24.483l1.407-.306v4.748h9.049V30.3H691.81v9.606c0,3.815,1.641,5.749,4.879,5.749a9.552,9.552,0,0,0,3.75-.811l.383-.166.311,1.371-.265.113a11.516,11.516,0,0,1-4.241.868" transform="translate(2274.027 5873.338)" fill="#fff" opacity="0.4"/>
    <path id="Path_1125" data-name="Path 1125" d="M701.386,46.657a11.16,11.16,0,0,1-4.1.84c-3.918,0-5.878-2.675-5.878-6.779V30.767h-3.545v-.685H691.4V25.573l.716-.155v4.664h9.049v.685h-9.049v9.951c0,3.794,1.648,6.095,5.224,6.095a9.877,9.877,0,0,0,3.887-.839Z" transform="translate(2273.372 5872.525)" fill="#fff" opacity="0.4"/>
    <path id="Path_1126" data-name="Path 1126" d="M92.393,66.4V45.118c0-10.791-14.547-14.226-19.375-4.573S79.67,59.773,88.3,53.3V66.4ZM82.165,51.254A6.136,6.136,0,1,1,88.3,45.118a6.136,6.136,0,0,1-6.136,6.136h0" transform="translate(2794.619 5830.882)" fill="#fff"/>
    <rect id="Rectangle_323" data-name="Rectangle 323" width="4.091" height="32.551" transform="translate(2922.637 5853.708)" fill="#fff"/>
    <path id="Path_1127" data-name="Path 1127" d="M20.443,45.213V34.982H16.352v2.063a10.221,10.221,0,1,0,4.091,8.169m-16.37,0a6.14,6.14,0,1,1,6.14,6.14,6.14,6.14,0,0,1-6.14-6.14" transform="translate(2841.659 5830.813)" fill="#fff"/>
    <rect id="Rectangle_324" data-name="Rectangle 324" width="4.091" height="20.454" transform="translate(2914.183 5865.804)" fill="#fff"/>
    <path id="Path_1128" data-name="Path 1128" d="M143.942,34.766V46.1a9.2,9.2,0,0,0,18.408,0V34.766H158.26V46.1a5.114,5.114,0,0,1-10.228.013V34.766Z" transform="translate(2747.454 5830.954)" fill="#fff"/>
    <path id="Path_1129" data-name="Path 1129" d="M279.316,45.213V34.982h-4.091v2.063a10.221,10.221,0,1,0,4.091,8.169m-16.371,0a6.14,6.14,0,1,1,6.14,6.14,6.14,6.14,0,0,1-6.14-6.14" transform="translate(2672.236 5830.813)" fill="#fff"/>
  </g>
</svg>
