<svg id="Component_70_1" data-name="Component 70 – 1" xmlns="http://www.w3.org/2000/svg" width="37.01" height="37" viewBox="0 0 37.01 37">
  <g id="Group_621" data-name="Group 621">
    <path id="Path_17836" data-name="Path 17836" d="M28.143,4.51c-.125-.01-.251-.01-.376-.01h-.019a7.074,7.074,0,0,0-4.3,1.455.7.7,0,0,0-.26.5.679.679,0,0,0,.222.52l8.655,7.759a.691.691,0,0,0,.443.173h.039a.654.654,0,0,0,.463-.231,4.743,4.743,0,0,0,1.571-3.527A6.721,6.721,0,0,0,28.143,4.51Z" transform="translate(2.428 -4.5)" fill="#16234a"/>
    <path id="Path_17837" data-name="Path 17837" d="M4.5,11.15a4.743,4.743,0,0,0,1.571,3.527.654.654,0,0,0,.463.231h.039a.643.643,0,0,0,.443-.173L15.68,6.977a.662.662,0,0,0-.039-1.022,7.074,7.074,0,0,0-4.3-1.455h-.019c-.125,0-.251,0-.376.01A6.729,6.729,0,0,0,4.5,11.15Z" transform="translate(-4.5 -4.5)" fill="#16234a"/>
  </g>
  <path id="Path_17838" data-name="Path 17838" d="M35.5,34.7a16.963,16.963,0,1,0-25.83,0L6.329,38.121A1.425,1.425,0,0,0,6.357,40.2a1.634,1.634,0,0,0,1.1.463,1.5,1.5,0,0,0,1.079-.492l3.335-3.325a16.956,16.956,0,0,0,21.435,0l3.238,3.325a1.569,1.569,0,0,0,1.108.492,1.588,1.588,0,0,0,1.079-.463,1.43,1.43,0,0,0,.125-2.082ZM23.937,23.906a1.353,1.353,0,0,1-1.349,1.349h-7.9a1.349,1.349,0,1,1,0-2.7h6.554V12.726a1.349,1.349,0,0,1,2.7,0Z" transform="translate(-4.083 -3.666)" fill="#16234a"/>
</svg>
