<svg id="Component_69_1" data-name="Component 69 – 1" xmlns="http://www.w3.org/2000/svg" width="21.718" height="21.712" viewBox="0 0 21.718 21.712">
  <g id="Group_621" data-name="Group 621">
    <path id="Path_17836" data-name="Path 17836" d="M26.1,4.506c-.074-.006-.147-.006-.221-.006h-.011a4.151,4.151,0,0,0-2.522.854.409.409,0,0,0-.153.294.4.4,0,0,0,.13.305L28.4,10.506a.406.406,0,0,0,.26.1h.023a.384.384,0,0,0,.271-.136,2.784,2.784,0,0,0,.922-2.07A3.944,3.944,0,0,0,26.1,4.506Z" transform="translate(-8.156 -4.5)" fill="#fff"/>
    <path id="Path_17837" data-name="Path 17837" d="M4.5,8.4a2.784,2.784,0,0,0,.922,2.07.384.384,0,0,0,.271.136h.023a.378.378,0,0,0,.26-.1l5.085-4.553a.389.389,0,0,0-.023-.6A4.151,4.151,0,0,0,8.516,4.5H8.5c-.074,0-.147,0-.221.006A3.949,3.949,0,0,0,4.5,8.4Z" transform="translate(-4.5 -4.5)" fill="#fff"/>
  </g>
  <path id="Path_17838" data-name="Path 17838" d="M23.158,23.152A9.954,9.954,0,1,0,8,23.152L6.038,25.16a.836.836,0,0,0,.017,1.222.959.959,0,0,0,.645.271.883.883,0,0,0,.633-.288L9.29,24.413a9.95,9.95,0,0,0,12.579,0l1.9,1.951a.921.921,0,0,0,.65.288.932.932,0,0,0,.633-.271.839.839,0,0,0,.074-1.222Zm-6.787-6.335a.794.794,0,0,1-.792.792H10.941a.792.792,0,1,1,0-1.584h3.846V10.257a.792.792,0,0,1,1.584,0Z" transform="translate(-4.72 -4.94)" fill="#fff"/>
</svg>
