<svg id="Component_69_1" data-name="Component 69 – 1" xmlns="http://www.w3.org/2000/svg" width="76.112" height="76.109" viewBox="0 0 76.112 76.109">
  <path id="Path_17714" data-name="Path 17714" d="M104.833,1632.428c-2.792,1.549-7.9-1.609-10.985-.783-2.792.749-5.156,5.929-8.043,5.88-3.192-.054-6.037-5.343-9.121-6.167-2.792-.749-7.429,2.556-9.907,1.071-2.738-1.645-2.556-7.645-4.812-9.9-2.045-2.042-7.714-1.5-9.116-4.027-1.549-2.792,1.608-7.9.781-10.982-.746-2.792-5.929-5.156-5.88-8.046.054-3.192,5.342-6.035,6.17-9.12.746-2.792-2.558-7.427-1.07-9.907,1.643-2.738,7.645-2.554,9.9-4.812,2.045-2.045,1.5-7.714,4.027-9.116,2.792-1.549,7.9,1.608,10.985.783,2.792-.749,5.156-5.929,8.043-5.88,3.192.054,6.037,5.343,9.121,6.167,2.792.75,7.429-2.556,9.907-1.07,2.738,1.645,2.556,7.645,4.815,9.9,2.043,2.043,7.712,1.5,9.114,4.026,1.552,2.792-1.608,7.9-.781,10.982.746,2.791,5.929,5.156,5.88,8.043-.054,3.192-5.343,6.04-6.17,9.124-.746,2.789,2.558,7.427,1.07,9.9-1.643,2.74-7.645,2.558-9.9,4.815C106.817,1625.358,107.36,1631.024,104.833,1632.428Z" transform="translate(-47.75 -1561.417)" fill="#fed592"/>
  <path id="Path_17715" data-name="Path 17715" d="M28.415,0A28.415,28.415,0,1,1,0,28.415,28.415,28.415,0,0,1,28.415,0Z" transform="translate(9.486 9.485)" fill="#f8b84e"/>
  <g id="AdobeStock_227487411" transform="translate(-65.642 -21.916)">
    <path id="Path_17873" data-name="Path 17873" d="M161.78,200a9.78,9.78,0,1,0,9.78,9.78A9.792,9.792,0,0,0,161.78,200Zm0,18.056a8.276,8.276,0,1,1,8.276-8.276A8.285,8.285,0,0,1,161.78,218.056Z" transform="translate(-57.981 -144.953)" fill="#fff"/>
    <path id="Path_17874" data-name="Path 17874" d="M118.846,40H88.752a.753.753,0,0,0-.752.752V78.369a.752.752,0,0,0,.752.752h3.009a.752.752,0,1,0,0,1.5h3.009a.752.752,0,1,0,0-1.5h18.056a.752.752,0,1,0,0,1.5h3.009a.752.752,0,1,0,0-1.5h3.009a.752.752,0,0,0,.752-.752V40.752A.752.752,0,0,0,118.846,40Zm-4.514,3.009a2.257,2.257,0,1,1-2.257,2.257A2.26,2.26,0,0,1,114.332,43.009Zm-6.019,0a2.257,2.257,0,1,1-2.257,2.257A2.26,2.26,0,0,1,108.313,43.009Zm-17.3.752a.753.753,0,0,1,.752-.752h9.028a.753.753,0,0,1,.752.752v3.009a.753.753,0,0,1-.752.752H91.762a.753.753,0,0,1-.752-.752ZM103.8,76.112a11.285,11.285,0,1,1,11.285-11.285A11.3,11.3,0,0,1,103.8,76.112Zm13.542-25.579H90.257v-1.5h27.084Z" transform="translate(0 0)" fill="#fff"/>
  </g>
</svg>
