<svg xmlns="http://www.w3.org/2000/svg" width="21.159" height="25.18" viewBox="0 0 21.159 25.18">
  <path id="Icon_awesome-apple" data-name="Icon awesome-apple" d="M17.972,15.556a5.248,5.248,0,0,1,2.811-4.767,6.04,6.04,0,0,0-4.761-2.507c-2-.157-4.177,1.164-4.975,1.164-.843,0-2.777-1.107-4.295-1.107-3.137.051-6.47,2.5-6.47,7.488a14.011,14.011,0,0,0,.809,4.565c.72,2.063,3.317,7.122,6.026,7.038,1.417-.034,2.417-1.006,4.261-1.006,1.788,0,2.715,1.006,4.295,1.006,2.732-.039,5.082-4.638,5.768-6.706a5.573,5.573,0,0,1-3.468-5.166ZM14.79,6.326A5.3,5.3,0,0,0,16.139,2.25a5.961,5.961,0,0,0-3.817,1.962,5.378,5.378,0,0,0-1.439,4.042A4.721,4.721,0,0,0,14.79,6.326Z" transform="translate(-0.281 -2.25)" fill="#fff"/>
</svg>
