<svg xmlns="http://www.w3.org/2000/svg" width="21.667" height="20" viewBox="0 0 21.667 20">
  <g id="Icon_ionic-ios-archive" data-name="Icon ionic-ios-archive" transform="translate(-3.375 -4.5)">
    <path id="Path_17778" data-name="Path 17778" d="M24.833,7.417H3.583a.209.209,0,0,1-.208-.208V6.167A1.665,1.665,0,0,1,5.042,4.5H23.375a1.665,1.665,0,0,1,1.667,1.667V7.208A.209.209,0,0,1,24.833,7.417Z" fill="#fff"/>
    <path id="Path_17779" data-name="Path 17779" d="M24.083,10.266H4.917a.418.418,0,0,0-.417.417V24.328a1.672,1.672,0,0,0,1.667,1.667H22.833A1.672,1.672,0,0,0,24.5,24.328V10.682A.418.418,0,0,0,24.083,10.266Zm-6.979,7.4H11.917a.747.747,0,0,1-.745-.641A.729.729,0,0,1,11.9,16.2h5.187a.747.747,0,0,1,.745.641A.732.732,0,0,1,17.1,17.661Z" transform="translate(-0.292 -1.495)" fill="#fff"/>
  </g>
</svg>
