<svg xmlns="http://www.w3.org/2000/svg" width="31.504" height="30.705" viewBox="0 0 31.504 30.705">
  <path id="Icon_awesome-arrow-left" data-name="Icon awesome-arrow-left" d="M13.391,31.3l1.561,1.561a1.681,1.681,0,0,0,2.384,0L31,19.2a1.68,1.68,0,0,0,0-2.384L17.336,3.143a1.681,1.681,0,0,0-2.384,0L13.391,4.7a1.689,1.689,0,0,0,.028,2.412l8.473,8.072H1.684A1.683,1.683,0,0,0,0,16.875v2.25a1.683,1.683,0,0,0,1.688,1.687H21.892l-8.473,8.072A1.677,1.677,0,0,0,13.391,31.3Z" transform="translate(0.004 -2.647)" fill="#fff"/>
</svg>
