<svg xmlns="http://www.w3.org/2000/svg" width="29.296" height="32.307" viewBox="0 0 29.296 32.307">
  <path id="Icon_simple-email" data-name="Icon simple-email" d="M30.946,14.911a16.661,16.661,0,0,1-.537,3.614A10.458,10.458,0,0,1,29,21.7a7.414,7.414,0,0,1-2.382,2.255,6.723,6.723,0,0,1-3.478.858,5.043,5.043,0,0,1-2.515-.616,4.308,4.308,0,0,1-1.7-1.742,5.388,5.388,0,0,1-4.558,2.289,4.635,4.635,0,0,1-3.979-2.14A7.005,7.005,0,0,1,9.4,20.123a10.692,10.692,0,0,1-.129-3.234,15.023,15.023,0,0,1,.985-3.961,10.766,10.766,0,0,1,1.821-3.034,7.7,7.7,0,0,1,2.5-1.934,6.985,6.985,0,0,1,3.044-.676,9.466,9.466,0,0,1,1.821.155,7.454,7.454,0,0,1,1.413.424,7.642,7.642,0,0,1,1.171.618c.357.23.717.468,1.074.711l-.884,10.175a3.382,3.382,0,0,0,.026,1.191,1.666,1.666,0,0,0,.363.735,1.308,1.308,0,0,0,.589.384,2.188,2.188,0,0,0,2.071-.408,4.414,4.414,0,0,0,1.11-1.413,9.1,9.1,0,0,0,.747-2.124,14.571,14.571,0,0,0,.327-2.645,16.9,16.9,0,0,0-.416-4.942,9.823,9.823,0,0,0-1.829-3.824,8.493,8.493,0,0,0-3.279-2.463,11.9,11.9,0,0,0-4.776-.874,10.546,10.546,0,0,0-4.724,1.03A10.839,10.839,0,0,0,8.842,6.868a13.7,13.7,0,0,0-2.35,4.294,19.351,19.351,0,0,0-.989,5.35,17.79,17.79,0,0,0,.5,5.459A9.859,9.859,0,0,0,8,25.883a8.323,8.323,0,0,0,3.379,2.35,12.963,12.963,0,0,0,4.663.779,15.973,15.973,0,0,0,3.06-.329c.5-.1.983-.222,1.439-.355a10.833,10.833,0,0,0,1.24-.444l.64,2.879a7.1,7.1,0,0,1-1.387.686,13.35,13.35,0,0,1-1.639.474,16,16,0,0,1-3.424.384A17.955,17.955,0,0,1,9.733,31.3a11.489,11.489,0,0,1-4.55-2.992,12.565,12.565,0,0,1-2.731-4.94,21.072,21.072,0,0,1-.763-6.858A20.915,20.915,0,0,1,3,9.93,16.288,16.288,0,0,1,6.161,4.7a14.406,14.406,0,0,1,4.823-3.45A15.1,15.1,0,0,1,17.23,0a15.765,15.765,0,0,1,6.052,1.084,11.772,11.772,0,0,1,4.369,3.048,12.51,12.51,0,0,1,2.592,4.71A18.009,18.009,0,0,1,30.946,14.911ZM13.609,16.889a6.868,6.868,0,0,0,.355,3.406,1.826,1.826,0,0,0,1.756,1.151,1.94,1.94,0,0,0,.6-.111,2.145,2.145,0,0,0,.692-.416,3.7,3.7,0,0,0,.7-.848,6.507,6.507,0,0,0,.646-1.433l.69-7.906a4.125,4.125,0,0,0-1.074-.141,3.713,3.713,0,0,0-1.787.41,3.537,3.537,0,0,0-1.266,1.2,7.066,7.066,0,0,0-.84,1.978,16.783,16.783,0,0,0-.476,2.705Z" transform="translate(-1.67)" fill="#f8b84e"/>
</svg>
