<svg xmlns="http://www.w3.org/2000/svg" width="36" height="48" viewBox="0 0 36 48">
  <path id="Icon_awesome-award" data-name="Icon awesome-award" d="M9.1,34c-.815-.815-.39-.585-2.355-1.111a6.764,6.764,0,0,1-2.384-1.249L.113,42.065a1.5,1.5,0,0,0,1.447,2.065l4.94-.188,3.4,3.589a1.5,1.5,0,0,0,2.478-.465L17.254,35.1A6.728,6.728,0,0,1,9.1,34Zm26.782,8.069L31.634,31.637a6.749,6.749,0,0,1-2.384,1.249c-1.975.529-1.542.3-2.355,1.111a6.729,6.729,0,0,1-8.15,1.105l4.88,11.964a1.5,1.5,0,0,0,2.478.465l3.4-3.589,4.94.188a1.5,1.5,0,0,0,1.447-2.065ZM24.656,31.875c1.432-1.458,1.6-1.332,3.637-1.888a3.81,3.81,0,0,0,2.669-2.717c.7-2.662.519-2.341,2.433-4.289a3.889,3.889,0,0,0,.977-3.711c-.7-2.661-.7-2.289,0-4.953a3.889,3.889,0,0,0-.977-3.711c-1.913-1.948-1.732-1.627-2.433-4.289A3.81,3.81,0,0,0,28.293,3.6c-2.614-.713-2.3-.527-4.214-2.476A3.73,3.73,0,0,0,20.433.131c-2.613.712-2.248.713-4.866,0a3.728,3.728,0,0,0-3.646.995c-1.913,1.948-1.6,1.762-4.213,2.476A3.81,3.81,0,0,0,5.039,6.318c-.7,2.662-.519,2.341-2.433,4.289a3.887,3.887,0,0,0-.977,3.711c.7,2.659.7,2.287,0,4.952a3.891,3.891,0,0,0,.977,3.712c1.913,1.948,1.732,1.627,2.433,4.289a3.81,3.81,0,0,0,2.669,2.717c2.1.572,2.255.482,3.636,1.888a3.726,3.726,0,0,0,4.663.546,3.72,3.72,0,0,1,3.987,0A3.725,3.725,0,0,0,24.656,31.875ZM9.156,16.5A8.846,8.846,0,1,1,18,25.5a8.924,8.924,0,0,1-8.844-9Z" transform="translate(0 0.001)" fill="#fff"/>
</svg>
