<svg id="Group_478" data-name="Group 478" xmlns="http://www.w3.org/2000/svg" xmlns:xlink="http://www.w3.org/1999/xlink" width="17.384" height="18.861" viewBox="0 0 17.384 18.861">
  <defs>
    <clipPath id="clip-path">
      <rect id="Rectangle_1104" data-name="Rectangle 1104" width="17.384" height="18.861" fill="#16234a"/>
    </clipPath>
  </defs>
  <g id="Group_477" data-name="Group 477" clip-path="url(#clip-path)">
    <path id="Path_17766" data-name="Path 17766" d="M1.06,13.169a1.016,1.016,0,0,1-1-.733,1.063,1.063,0,0,1,.963-1.421c.7-.024,1.4-.007,2.106-.008h.262c0-.094,0-.172,0-.249,0-1.914,0-3.827.007-5.741a4.548,4.548,0,0,1,.359-1.7A5.25,5.25,0,0,1,6.152.607,4.474,4.474,0,0,1,8.337,0,6.2,6.2,0,0,1,10.368.23,5.285,5.285,0,0,1,12.424,1.5a5.178,5.178,0,0,1,1.138,1.656A5.641,5.641,0,0,1,14,5.352c0,1.8,0,3.594,0,5.391v.265h.684c.519,0,1.038-.007,1.557,0a1.065,1.065,0,0,1,1.132,1.01,1.049,1.049,0,0,1-.932,1.142l-.11.023v.233q0,2.4,0,4.8c0,.473-.17.642-.641.642q-7.019,0-14.038.005a.553.553,0,0,1-.6-.591c.016-1.621.006-3.243.006-4.864v-.237M12.6,4.639A3.921,3.921,0,0,0,7.91,1.378a3.861,3.861,0,0,0-3.1,3.261Zm-4.373.943H4.747V11H8.225Zm4.423,0H9.175V11h3.472Zm-6.913,7.6h-1.1v3.679h1.1Zm7.025,0h-1.1v3.678h1.1ZM2.3,16.865H3.387V13.178H2.3Zm5.774-3.688H6.988v3.694H8.076Zm2.337.008H9.325v3.68h1.088Zm4.687-.008H14.014v3.693H15.1Z" transform="translate(0 -0.001)" fill="#16234a"/>
  </g>
</svg>
