<svg xmlns="http://www.w3.org/2000/svg" width="20.681" height="16.92" viewBox="0 0 20.681 16.92">
  <g id="Group_356" data-name="Group 356" transform="translate(-1 -3)">
    <path id="Path_17728" data-name="Path 17728" d="M20.8,9.94a.94.94,0,0,0-.94-.94H2.94A.94.94,0,0,0,2,9.94v3.29a4.7,4.7,0,0,0,4.7,4.7h9.4a4.7,4.7,0,0,0,4.7-4.7V9.94Z" transform="translate(-0.06 -0.36)" fill="#16234a" fill-rule="evenodd"/>
    <path id="Path_17729" data-name="Path 17729" d="M20.741,9H1.94a.94.94,0,0,0,0,1.88h18.8a.94.94,0,0,0,0-1.88Z" transform="translate(0 -0.36)" fill="#16234a" fill-rule="evenodd"/>
    <path id="Path_17730" data-name="Path 17730" d="M6.652,6.759H6.7l.04,0a.953.953,0,0,0,.9-.937A2.818,2.818,0,0,0,4.822,3h0A2.82,2.82,0,0,0,2,5.82V9.58a.94.94,0,0,0,1.88,0V5.82a.94.94,0,0,1,.94-.94h0a.938.938,0,0,1,.938.92c0-.024,0-.046,0-.066a.855.855,0,0,0,0,.086A.94.94,0,0,0,6.652,6.759Zm9.516,10.22.94,2.35a.939.939,0,1,0,1.745-.7l-.94-2.35a.939.939,0,0,0-1.745.7Zm-11.28-.7-.94,2.35a.939.939,0,0,0,1.745.7l.94-2.35a.939.939,0,0,0-1.745-.7Z" transform="translate(-0.06)" fill="#16234a" fill-rule="evenodd"/>
  </g>
</svg>
