<svg xmlns="http://www.w3.org/2000/svg" width="14.866" height="13.008" viewBox="0 0 14.866 13.008">
  <path id="Icon_awesome-bath" data-name="Icon awesome-bath" d="M14.17,8.754H2.323V4.573a.929.929,0,0,1,1.714-.5,1.973,1.973,0,0,0,.2,2.411.348.348,0,0,0,.014.477l.329.329a.348.348,0,0,0,.493,0L7.83,4.533a.348.348,0,0,0,0-.493L7.5,3.712A.348.348,0,0,0,7.024,3.7a1.97,1.97,0,0,0-1.863-.446A2.322,2.322,0,0,0,.929,4.573V8.754H.7a.7.7,0,0,0-.7.7v.465a.7.7,0,0,0,.7.7H.929v.929a2.78,2.78,0,0,0,.929,2.077v.942a.7.7,0,0,0,.7.7H3.02a.7.7,0,0,0,.7-.7v-.232H11.15v.232a.7.7,0,0,0,.7.7h.465a.7.7,0,0,0,.7-.7v-.942a2.78,2.78,0,0,0,.929-2.077v-.929h.232a.7.7,0,0,0,.7-.7V9.451A.7.7,0,0,0,14.17,8.754Z" transform="translate(0 -2.25)" fill="#fff"/>
</svg>
