<svg xmlns="http://www.w3.org/2000/svg" width="20.132" height="12.079" viewBox="0 0 20.132 12.079">
  <path id="Icon_awesome-bed" data-name="Icon awesome-bed" d="M5.536,10.54A2.516,2.516,0,1,0,3.02,8.023,2.519,2.519,0,0,0,5.536,10.54ZM16.609,6.513H9.563a.5.5,0,0,0-.5.5v4.53H2.013V5a.5.5,0,0,0-.5-.5H.5A.5.5,0,0,0,0,5V16.076a.5.5,0,0,0,.5.5H1.51a.5.5,0,0,0,.5-.5v-1.51H18.119v1.51a.5.5,0,0,0,.5.5h1.007a.5.5,0,0,0,.5-.5v-6.04A3.523,3.523,0,0,0,16.609,6.513Z" transform="translate(0 -4.5)" fill="#fff"/>
</svg>
