<svg xmlns="http://www.w3.org/2000/svg" width="18.485" height="15.404" viewBox="0 0 18.485 15.404">
  <path id="Path_17741" data-name="Path 17741" d="M80.329,97.027A1.5,1.5,0,0,0,78.891,96h-11.3a1.5,1.5,0,0,0-1.438,1.027L64,102.675v7.7a1.03,1.03,0,0,0,1.027,1.027h1.027a1.03,1.03,0,0,0,1.027-1.027v-.513H79.4v.513a1.03,1.03,0,0,0,1.027,1.027h1.027a1.03,1.03,0,0,0,1.027-1.027v-7.7Zm-12.734,9.756a1.54,1.54,0,1,1,1.54-1.54A1.513,1.513,0,0,1,67.594,106.783Zm11.3,0a1.54,1.54,0,1,1,1.54-1.54A1.513,1.513,0,0,1,78.891,106.783Zm-12.837-5.135,1.54-4.108h11.3l1.54,4.108Z" transform="translate(-64 -96)" fill="#16234a"/>
</svg>
