<svg xmlns="http://www.w3.org/2000/svg" width="17.168" height="22.59" viewBox="0 0 17.168 22.59">
  <g id="Icon_ionic-ios-document" data-name="Icon ionic-ios-document" transform="translate(-7.313 -3.938)">
    <path id="Path_17803" data-name="Path 17803" d="M21.675,9.53h5.139a.28.28,0,0,0,.282-.282h0a1.671,1.671,0,0,0-.6-1.293L22.183,4.362a1.814,1.814,0,0,0-1.163-.418h0a.417.417,0,0,0-.418.418V8.457A1.073,1.073,0,0,0,21.675,9.53Z" transform="translate(-2.615 -0.001)" fill="#fff"/>
    <path id="Path_17804" data-name="Path 17804" d="M16.518,8.455V3.938H9.12A1.812,1.812,0,0,0,7.313,5.745V24.72A1.813,1.813,0,0,0,9.12,26.527H22.674a1.813,1.813,0,0,0,1.807-1.807V11H19.059A2.545,2.545,0,0,1,16.518,8.455Z" transform="translate(0 0)" fill="#fff"/>
  </g>
</svg>
