<svg xmlns="http://www.w3.org/2000/svg" width="23.467" height="23.467" viewBox="0 0 23.467 23.467">
  <path id="Path_17725" data-name="Path 17725" d="M24.287,13.731A1.173,1.173,0,0,0,23.114,14.9v7.038a1.173,1.173,0,0,1-1.173,1.173H5.519a1.173,1.173,0,0,1-1.173-1.173V5.52A1.173,1.173,0,0,1,5.519,4.347h7.038a1.173,1.173,0,0,0,0-2.346H5.519A3.519,3.519,0,0,0,2,5.52V21.942a3.519,3.519,0,0,0,3.519,3.519H21.941a3.519,3.519,0,0,0,3.519-3.519V14.9A1.173,1.173,0,0,0,24.287,13.731Zm-17.595.891V19.6a1.173,1.173,0,0,0,1.173,1.173h4.974a1.173,1.173,0,0,0,.833-.34L21.789,12.3h0L25.12,9.039a1.173,1.173,0,0,0,0-1.666L20.146,2.341a1.173,1.173,0,0,0-1.666,0l-3.308,3.32h0L7.032,13.79A1.173,1.173,0,0,0,6.692,14.622ZM19.313,4.828l3.32,3.32L20.967,9.813l-3.32-3.32ZM9.038,15.1l6.956-6.956,3.32,3.32-6.956,6.956H9.038Z" transform="translate(-2 -1.994)" fill="#fff"/>
</svg>
