<svg xmlns="http://www.w3.org/2000/svg" width="17.29" height="13.567" viewBox="0 0 17.29 13.567">
  <path id="Path_17740" data-name="Path 17740" d="M2.93,5.78H.733A.73.73,0,0,0,0,6.512V16.557a.73.73,0,0,0,.733.733h2.2a.73.73,0,0,0,.733-.733V6.512A.73.73,0,0,0,2.93,5.78ZM7.9,4.07H5.7a.73.73,0,0,0-.733.733V16.557a.73.73,0,0,0,.733.733H7.9a.73.73,0,0,0,.733-.733V4.8A.766.766,0,0,0,7.9,4.07ZM12.834,0h-2.2A.73.73,0,0,0,9.9.733V16.557a.73.73,0,0,0,.733.733h2.2a.73.73,0,0,0,.733-.733V.705A.724.724,0,0,0,12.834,0Z" transform="translate(17.29) rotate(90)" fill="#16234a"/>
</svg>
