<svg xmlns="http://www.w3.org/2000/svg" width="16.033" height="16.033" viewBox="0 0 16.033 16.033">
  <path id="Icon_awesome-expand-arrows-alt" data-name="Icon awesome-expand-arrows-alt" d="M16.033,13.416v4.008a.857.857,0,0,1-.859.859H11.166a.86.86,0,0,1-.608-1.467l1.3-1.3L8.017,11.684l-3.838,3.84,1.3,1.292a.86.86,0,0,1-.608,1.467H.859A.857.857,0,0,1,0,17.424V13.416a.86.86,0,0,1,1.467-.608l1.3,1.3L6.6,10.267,2.762,6.427l-1.295,1.3A.86.86,0,0,1,0,7.117V3.109A.857.857,0,0,1,.859,2.25H4.867a.86.86,0,0,1,.608,1.467l-1.3,1.3L8.017,8.849l3.838-3.84-1.3-1.292a.86.86,0,0,1,.608-1.467h4.008a.857.857,0,0,1,.859.859V7.117a.86.86,0,0,1-1.467.608l-1.3-1.3L9.432,10.267l3.839,3.84,1.295-1.3A.858.858,0,0,1,16.033,13.416Z" transform="translate(0 -2.25)" fill="#fff"/>
</svg>
