<svg xmlns="http://www.w3.org/2000/svg" width="17" height="18.133" viewBox="0 0 17 18.133">
  <path id="garden" d="M22.49,969.029c-.287,0-.34.634-.34,1.133v2.267c0,2.3,2.267,3.471,4.533,3.4V984.9c-1.133-2.267-4.533-5.667-7.933-4.533,0,0,2.833,6.8,8.5,6.8s8.5-6.8,8.5-6.8c-3.4-1.133-6.8,2.267-7.933,4.533v-9.067c2.267.07,4.533-1.1,4.533-3.4v-2.267c0-.5-.053-1.133-.34-1.133-.219,0-.482.256-.793.567l-1.7,1.7-1.7-1.912c-.177-.2-.28-.354-.567-.354s-.389.155-.567.354l-1.7,1.912-1.7-1.7c-.311-.311-.575-.567-.793-.567Z" transform="translate(-18.75 -969.029)" fill="#16234a"/>
</svg>
