<svg id="Component_69_1" data-name="Component 69 – 1" xmlns="http://www.w3.org/2000/svg" width="48.342" height="48.34" viewBox="0 0 48.342 48.34">
  <g id="Group_648" data-name="Group 648" transform="translate(-931.045 -629)">
    <path id="Path_17714" data-name="Path 17714" d="M84.006,1606.519c-1.773.984-5.017-1.022-6.977-.5-1.773.476-3.275,3.766-5.109,3.735-2.027-.034-3.835-3.393-5.793-3.917-1.773-.476-4.719,1.624-6.292.68-1.739-1.045-1.623-4.856-3.056-6.291-1.3-1.3-4.9-.951-5.79-2.557-.984-1.773,1.021-5.017.5-6.975-.474-1.773-3.766-3.275-3.735-5.11.034-2.027,3.393-3.833,3.919-5.793.474-1.773-1.625-4.717-.68-6.292,1.043-1.739,4.856-1.622,6.289-3.057,1.3-1.3.953-4.9,2.557-5.79,1.773-.984,5.018,1.021,6.977.5,1.773-.476,3.275-3.766,5.109-3.735,2.027.034,3.835,3.393,5.793,3.917,1.773.476,4.719-1.623,6.292-.68,1.739,1.045,1.623,4.856,3.058,6.291,1.3,1.3,4.9.951,5.788,2.557.986,1.773-1.021,5.017-.5,6.975.474,1.773,3.766,3.275,3.735,5.108-.034,2.028-3.393,3.836-3.919,5.795-.474,1.771,1.625,4.717.68,6.291-1.043,1.74-4.856,1.625-6.289,3.058C85.266,1602.028,85.611,1605.627,84.006,1606.519Z" transform="translate(883.295 -932.417)" fill="#fed592"/>
    <path id="Path_17715" data-name="Path 17715" d="M18.048,0A18.047,18.047,0,1,1,0,18.047,18.048,18.048,0,0,1,18.048,0Z" transform="translate(937.07 635.024)" fill="#f8b84e"/>
  </g>
  <path id="Icon_awesome-pound-sign" data-name="Icon awesome-pound-sign" d="M16.532,19.426H14.09a.644.644,0,0,0-.644.644V22.8H6.87V15.991h4.509a.644.644,0,0,0,.644-.644V13.2a.644.644,0,0,0-.644-.644H6.87V9.144A3.075,3.075,0,0,1,10.187,6.08a6.2,6.2,0,0,1,3.094,1.012.643.643,0,0,0,.842-.144l1.529-1.906a.644.644,0,0,0-.114-.917A9.224,9.224,0,0,0,10.087,2.25c-4.4,0-7.511,2.831-7.511,6.761v3.545h-1.5a.644.644,0,0,0-.644.644v2.147a.644.644,0,0,0,.644.644h1.5v6.87H.644A.644.644,0,0,0,0,23.505v2.147a.644.644,0,0,0,.644.644H16.532a.644.644,0,0,0,.644-.644V20.07A.644.644,0,0,0,16.532,19.426Z" transform="translate(14.955 9.17)" fill="#fff"/>
</svg>
