<svg id="Component_66_1" data-name="Component 66 – 1" xmlns="http://www.w3.org/2000/svg" xmlns:xlink="http://www.w3.org/1999/xlink" width="40.84" height="40.838" viewBox="0 0 40.84 40.838">
  <defs>
    <clipPath id="clip-path">
      <rect id="Rectangle_1162" data-name="Rectangle 1162" width="20.661" height="14.676" fill="#fff"/>
    </clipPath>
  </defs>
  <path id="Path_17811" data-name="Path 17811" d="M78.379,1599.52c-1.5.831-4.238-.863-5.894-.42-1.5.4-2.767,3.181-4.316,3.155-1.713-.029-3.239-2.867-4.894-3.309-1.5-.4-3.986,1.372-5.316.574-1.469-.883-1.371-4.1-2.582-5.314-1.1-1.1-4.139-.8-4.891-2.161-.831-1.5.863-4.238.419-5.892-.4-1.5-3.181-2.766-3.155-4.317.029-1.713,2.867-3.238,3.311-4.894.4-1.5-1.373-3.985-.574-5.316.881-1.469,4.1-1.37,5.313-2.582,1.1-1.1.8-4.139,2.161-4.891,1.5-.831,4.239.863,5.894.42,1.5-.4,2.767-3.181,4.316-3.155,1.713.029,3.239,2.867,4.894,3.309,1.5.4,3.986-1.371,5.316-.574,1.469.883,1.371,4.1,2.583,5.314,1.1,1.1,4.138.8,4.89,2.16.833,1.5-.863,4.238-.419,5.893.4,1.5,3.181,2.766,3.155,4.316-.029,1.713-2.867,3.241-3.311,4.9-.4,1.5,1.373,3.985.574,5.314-.881,1.47-4.1,1.373-5.313,2.583C79.444,1595.726,79.735,1598.766,78.379,1599.52Z" transform="translate(-47.75 -1561.417)" fill="#fed592"/>
  <path id="Path_17810" data-name="Path 17810" d="M15.247,0A15.247,15.247,0,1,1,0,15.247,15.247,15.247,0,0,1,15.247,0Z" transform="translate(5.088 5.089)" fill="#f8b84e"/>
  <g id="Group_562" data-name="Group 562" transform="translate(10.006 12.657)">
    <g id="Group_506" data-name="Group 506" clip-path="url(#clip-path)">
      <path id="Path_17769" data-name="Path 17769" d="M19.326,0H1.333A1.335,1.335,0,0,0,0,1.335V13.342a1.335,1.335,0,0,0,1.335,1.335H19.326a1.335,1.335,0,0,0,1.335-1.333V1.335A1.335,1.335,0,0,0,19.326,0M5.114,2.071A2.647,2.647,0,1,1,2.468,4.717,2.647,2.647,0,0,1,5.114,2.071M8.16,12.182H2.069a.676.676,0,0,1-.639-.822A3.817,3.817,0,0,1,5.114,8.225,3.817,3.817,0,0,1,8.8,11.36a.676.676,0,0,1-.639.822m9.165-2.842v0H11.112a.667.667,0,0,1,0-1.333h6.213a.667.667,0,0,1,0,1.335m0-2.668v0H11.112a.667.667,0,0,1,0-1.333h6.213a.667.667,0,0,1,0,1.335" fill="#fff"/>
    </g>
  </g>
</svg>
