<svg id="Component_55_1" data-name="Component 55 – 1" xmlns="http://www.w3.org/2000/svg" width="48.342" height="48.34" viewBox="0 0 48.342 48.34">
  <path id="Path_17714" data-name="Path 17714" d="M84.006,1606.519c-1.773.984-5.017-1.022-6.977-.5-1.773.476-3.275,3.766-5.109,3.735-2.027-.034-3.835-3.393-5.793-3.917-1.773-.476-4.719,1.624-6.292.68-1.739-1.045-1.623-4.856-3.056-6.291-1.3-1.3-4.9-.951-5.79-2.557-.984-1.773,1.021-5.017.5-6.975-.474-1.773-3.766-3.275-3.735-5.11.034-2.027,3.393-3.833,3.919-5.793.474-1.773-1.625-4.717-.68-6.292,1.043-1.739,4.856-1.622,6.289-3.057,1.3-1.3.953-4.9,2.557-5.79,1.773-.984,5.018,1.021,6.977.5,1.773-.476,3.275-3.766,5.109-3.735,2.027.034,3.835,3.393,5.793,3.917,1.773.476,4.719-1.623,6.292-.68,1.739,1.045,1.623,4.856,3.058,6.291,1.3,1.3,4.9.951,5.788,2.557.986,1.773-1.021,5.017-.5,6.975.474,1.773,3.766,3.275,3.735,5.108-.034,2.028-3.393,3.836-3.919,5.795-.474,1.771,1.625,4.717.68,6.291-1.043,1.74-4.856,1.625-6.289,3.058C85.266,1602.028,85.611,1605.627,84.006,1606.519Z" transform="translate(-47.75 -1561.417)" fill="#fed592"/>
  <path id="Path_17715" data-name="Path 17715" d="M18.048,0A18.047,18.047,0,1,1,0,18.047,18.048,18.048,0,0,1,18.048,0Z" transform="translate(6.027 6.024)" fill="#f8b84e"/>
  <path id="Icon_awesome-check" data-name="Icon awesome-check" d="M7.544,20.816.325,13.6a1.111,1.111,0,0,1,0-1.571L1.9,10.456a1.111,1.111,0,0,1,1.571,0L8.33,15.319,18.746,4.9a1.111,1.111,0,0,1,1.571,0l1.571,1.571a1.111,1.111,0,0,1,0,1.571L9.115,20.816A1.111,1.111,0,0,1,7.544,20.816Z" transform="translate(12.969 11.213)" fill="#fff"/>
</svg>
