<svg id="Component_56_1" data-name="Component 56 – 1" xmlns="http://www.w3.org/2000/svg" width="36.095" height="36.095" viewBox="0 0 36.095 36.095">
  <path id="Path_17715" data-name="Path 17715" d="M18.048,0A18.047,18.047,0,1,1,0,18.047,18.048,18.048,0,0,1,18.048,0Z" fill="#6e6a6a"/>
  <path id="Icon_awesome-check" data-name="Icon awesome-check" d="M7.544,20.816.325,13.6a1.111,1.111,0,0,1,0-1.571L1.9,10.456a1.111,1.111,0,0,1,1.571,0L8.33,15.319,18.746,4.9a1.111,1.111,0,0,1,1.571,0l1.571,1.571a1.111,1.111,0,0,1,0,1.571L9.115,20.816A1.111,1.111,0,0,1,7.544,20.816Z" transform="translate(6.941 5.188)" fill="#fff"/>
</svg>
