<svg xmlns="http://www.w3.org/2000/svg" width="20.616" height="16.031" viewBox="0 0 20.616 16.031">
  <path id="Icon_awesome-home" data-name="Icon awesome-home" d="M10.033,6.412l-6.6,5.434v5.865a.573.573,0,0,0,.573.573l4.01-.01a.573.573,0,0,0,.57-.573V14.277A.573.573,0,0,1,9.16,13.7h2.29a.573.573,0,0,1,.573.573V17.7a.573.573,0,0,0,.573.574l4.009.011a.573.573,0,0,0,.573-.573V11.843l-6.6-5.43A.436.436,0,0,0,10.033,6.412Zm10.423,3.694L17.464,7.64V2.683a.429.429,0,0,0-.429-.429h-2a.429.429,0,0,0-.429.429v2.6L11.4,2.645a1.718,1.718,0,0,0-2.183,0L.155,10.106a.429.429,0,0,0-.057.6L1.01,11.82a.429.429,0,0,0,.605.058l8.418-6.934a.436.436,0,0,1,.548,0L19,11.879a.429.429,0,0,0,.6-.057l.913-1.109a.429.429,0,0,0-.061-.606Z" transform="translate(0.001 -2.253)" fill="#fff"/>
</svg>
