<svg xmlns="http://www.w3.org/2000/svg" width="40.763" height="39.128" viewBox="0 0 40.763 39.128">
  <path id="Icon_awesome-star" data-name="Icon awesome-star" d="M18.269,1.254l-4.6,9.33-10.3,1.5a2.256,2.256,0,0,0-1.247,3.848l7.448,7.258L7.812,33.444a2.254,2.254,0,0,0,3.27,2.375l9.21-4.841,9.21,4.841a2.255,2.255,0,0,0,3.27-2.375L31.01,23.191l7.448-7.258a2.256,2.256,0,0,0-1.247-3.848l-10.3-1.5-4.6-9.33a2.257,2.257,0,0,0-4.045,0Z" transform="translate(0.09 1.501)" fill="none" stroke="#000" stroke-width="3" opacity="0.165"/>
</svg>
