<svg id="Component_56_1" data-name="Component 56 – 1" xmlns="http://www.w3.org/2000/svg" xmlns:xlink="http://www.w3.org/1999/xlink" width="48.342" height="48.34" viewBox="0 0 48.342 48.34">
  <defs>
    <clipPath id="clip-path">
      <rect id="Rectangle_1162" data-name="Rectangle 1162" width="24.371" height="17.312" fill="#fff"/>
    </clipPath>
  </defs>
  <path id="Path_17714" data-name="Path 17714" d="M84.006,1606.519c-1.773.984-5.017-1.022-6.977-.5-1.773.476-3.275,3.766-5.109,3.735-2.027-.034-3.835-3.393-5.793-3.917-1.773-.476-4.719,1.624-6.292.68-1.739-1.045-1.623-4.856-3.056-6.291-1.3-1.3-4.9-.951-5.79-2.557-.984-1.773,1.021-5.017.5-6.975-.474-1.773-3.766-3.275-3.735-5.11.034-2.027,3.393-3.833,3.919-5.793.474-1.773-1.625-4.717-.68-6.292,1.043-1.739,4.856-1.622,6.289-3.057,1.3-1.3.953-4.9,2.557-5.79,1.773-.984,5.018,1.021,6.977.5,1.773-.476,3.275-3.766,5.109-3.735,2.027.034,3.835,3.393,5.793,3.917,1.773.476,4.719-1.623,6.292-.68,1.739,1.045,1.623,4.856,3.058,6.291,1.3,1.3,4.9.951,5.788,2.557.986,1.773-1.021,5.017-.5,6.975.474,1.773,3.766,3.275,3.735,5.108-.034,2.028-3.393,3.836-3.919,5.795-.474,1.771,1.625,4.717.68,6.291-1.043,1.74-4.856,1.625-6.289,3.058C85.266,1602.028,85.611,1605.627,84.006,1606.519Z" transform="translate(-47.75 -1561.417)" fill="#fed592"/>
  <path id="Path_17715" data-name="Path 17715" d="M18.048,0A18.047,18.047,0,1,1,0,18.047,18.048,18.048,0,0,1,18.048,0Z" transform="translate(6.027 6.024)" fill="#f8b84e"/>
  <g id="Group_507" data-name="Group 507" transform="translate(12.483 15.619)">
    <g id="Group_506" data-name="Group 506" clip-path="url(#clip-path)">
      <path id="Path_17769" data-name="Path 17769" d="M22.8,0H1.572A1.575,1.575,0,0,0,0,1.575V15.737a1.575,1.575,0,0,0,1.575,1.575H22.8a1.575,1.575,0,0,0,1.575-1.572V1.575A1.575,1.575,0,0,0,22.8,0M6.033,2.443A3.122,3.122,0,1,1,2.911,5.564,3.122,3.122,0,0,1,6.033,2.443M9.626,14.37H2.44a.8.8,0,0,1-.754-.97A4.5,4.5,0,0,1,6.033,9.7a4.5,4.5,0,0,1,4.347,3.7.8.8,0,0,1-.754.97m10.811-3.352v0H13.108a.787.787,0,0,1,0-1.572h7.329a.787.787,0,0,1,0,1.575m0-3.147v0H13.108a.787.787,0,0,1,0-1.572h7.329a.787.787,0,0,1,0,1.575" fill="#fff"/>
    </g>
  </g>
</svg>
