<svg id="Component_57_1" data-name="Component 57 – 1" xmlns="http://www.w3.org/2000/svg" width="54" height="54" viewBox="0 0 54 54">
  <circle id="Ellipse_170" data-name="Ellipse 170" cx="27" cy="27" r="27" fill="#f8b84e"/>
  <path id="Path_17744" data-name="Path 17744" d="M24.968,2H6.053A4.053,4.053,0,0,0,2,6.053V24.968a4.053,4.053,0,0,0,4.053,4.053H24.968a4.053,4.053,0,0,0,4.053-4.053V6.053A4.053,4.053,0,0,0,24.968,2ZM12.808,8.755a2.7,2.7,0,1,1-2.7,2.7A2.7,2.7,0,0,1,12.808,8.755ZM9.417,26.319H6.053a1.351,1.351,0,0,1-1.27-.959l4.175-5.012a1.459,1.459,0,0,1,1.067-.486,1.351,1.351,0,0,1,1.054.54l1.351,1.8Zm16.9-1.351a1.351,1.351,0,0,1-1.351,1.351H12.808l7.39-10.16A1.355,1.355,0,0,1,22.252,16l4.067,4.121Z" transform="translate(11.49 11.49)" fill="#fff"/>
</svg>
