<svg xmlns="http://www.w3.org/2000/svg" width="45.133" height="45.133" viewBox="0 0 45.133 45.133">
  <path id="Icon_awesome-exclamation-circle" data-name="Icon awesome-exclamation-circle" d="M45.7,23.129A22.566,22.566,0,1,1,23.129.563,22.565,22.565,0,0,1,45.7,23.129Zm-22.566,4.55a4.186,4.186,0,1,0,4.186,4.186A4.186,4.186,0,0,0,23.129,27.679ZM19.155,12.633l.675,12.375a1.092,1.092,0,0,0,1.09,1.032h4.417a1.092,1.092,0,0,0,1.09-1.032L27.1,12.633a1.092,1.092,0,0,0-1.09-1.151H20.245A1.092,1.092,0,0,0,19.155,12.633Z" transform="translate(-0.563 -0.563)" fill="#16234a"/>
</svg>
