<svg xmlns="http://www.w3.org/2000/svg" width="23.438" height="23.438" viewBox="0 0 23.438 23.438">
  <path id="Icon_awesome-exclamation-circle" data-name="Icon awesome-exclamation-circle" d="M24,12.281A11.719,11.719,0,1,1,12.281.563,11.718,11.718,0,0,1,24,12.281ZM12.281,14.644a2.174,2.174,0,1,0,2.174,2.174A2.174,2.174,0,0,0,12.281,14.644ZM10.218,6.831l.351,6.426a.567.567,0,0,0,.566.536h2.294a.567.567,0,0,0,.566-.536l.351-6.426a.567.567,0,0,0-.566-.6h-3A.567.567,0,0,0,10.218,6.831Z" transform="translate(-0.563 -0.563)" fill="#fff"/>
</svg>
