<svg xmlns="http://www.w3.org/2000/svg" width="20.074" height="20.074" viewBox="0 0 20.074 20.074">
  <path id="Icon_awesome-info-circle" data-name="Icon awesome-info-circle" d="M10.6.563A10.037,10.037,0,1,0,20.637,10.6,10.039,10.039,0,0,0,10.6.563Zm0,4.452a1.7,1.7,0,1,1-1.7,1.7A1.7,1.7,0,0,1,10.6,5.014Zm2.266,10.28a.486.486,0,0,1-.486.486H8.819a.486.486,0,0,1-.486-.486v-.971a.486.486,0,0,1,.486-.486H9.3v-2.59H8.819a.486.486,0,0,1-.486-.486V9.79A.486.486,0,0,1,8.819,9.3h2.59a.486.486,0,0,1,.486.486v4.047h.486a.486.486,0,0,1,.486.486Z" transform="translate(-0.563 -0.563)" fill="#f8b84e"/>
</svg>
