<svg xmlns="http://www.w3.org/2000/svg" width="16.168" height="16.167" viewBox="0 0 16.168 16.167">
  <path id="Icon_simple-instagram" data-name="Icon simple-instagram" d="M8.084,0c-2.2,0-2.47.01-3.333.049A5.961,5.961,0,0,0,2.789.424a3.959,3.959,0,0,0-1.432.932A3.944,3.944,0,0,0,.424,2.789,5.943,5.943,0,0,0,.049,4.751C.008,5.613,0,5.888,0,8.084s.01,2.47.049,3.333a5.964,5.964,0,0,0,.376,1.962,3.964,3.964,0,0,0,.932,1.432,3.953,3.953,0,0,0,1.432.932,5.969,5.969,0,0,0,1.962.376c.862.04,1.136.049,3.333.049s2.47-.01,3.333-.049a5.982,5.982,0,0,0,1.962-.376,4.131,4.131,0,0,0,2.365-2.364,5.964,5.964,0,0,0,.376-1.962c.04-.862.049-1.136.049-3.333s-.01-2.47-.049-3.333a5.978,5.978,0,0,0-.376-1.962,3.968,3.968,0,0,0-.932-1.432A3.939,3.939,0,0,0,13.379.424,5.947,5.947,0,0,0,11.417.049C10.554.008,10.28,0,8.084,0Zm0,1.455c2.158,0,2.415.011,3.267.048a4.454,4.454,0,0,1,1.5.28,2.66,2.66,0,0,1,1.535,1.534,4.463,4.463,0,0,1,.278,1.5c.038.853.047,1.109.047,3.267s-.01,2.415-.05,3.267a4.549,4.549,0,0,1-.284,1.5,2.567,2.567,0,0,1-.606.931,2.522,2.522,0,0,1-.93.6,4.5,4.5,0,0,1-1.506.278c-.858.038-1.111.047-3.273.047s-2.416-.01-3.273-.05a4.584,4.584,0,0,1-1.506-.284,2.5,2.5,0,0,1-.929-.606,2.455,2.455,0,0,1-.606-.93,4.588,4.588,0,0,1-.283-1.506c-.03-.849-.041-1.111-.041-3.263s.011-2.416.041-3.275a4.582,4.582,0,0,1,.283-1.5,2.4,2.4,0,0,1,.606-.93,2.391,2.391,0,0,1,.929-.6,4.474,4.474,0,0,1,1.5-.284c.859-.03,1.112-.04,3.273-.04l.03.02Zm0,2.478a4.151,4.151,0,1,0,4.151,4.151A4.151,4.151,0,0,0,8.084,3.933Zm0,6.846a2.695,2.695,0,1,1,2.695-2.695A2.694,2.694,0,0,1,8.084,10.778ZM13.37,3.769A.97.97,0,1,1,12.4,2.8.971.971,0,0,1,13.37,3.769Z" fill="#16234a"/>
</svg>
