<svg xmlns="http://www.w3.org/2000/svg" width="15.561" height="15.56" viewBox="0 0 15.561 15.56">
  <path id="Icon_awesome-linkedin-in" data-name="Icon awesome-linkedin-in" d="M3.483,15.561H.257V5.172H3.483ZM1.868,3.755A1.877,1.877,0,1,1,3.737,1.869,1.884,1.884,0,0,1,1.868,3.755ZM15.557,15.561H12.338V10.5c0-1.205-.024-2.751-1.677-2.751-1.677,0-1.934,1.309-1.934,2.664v5.144H5.5V5.172H8.6V6.589h.045A3.39,3.39,0,0,1,11.7,4.912c3.265,0,3.865,2.15,3.865,4.943v5.707Z" transform="translate(0 -0.001)" fill="#16234a"/>
</svg>
