<svg xmlns="http://www.w3.org/2000/svg" width="21.146" height="18.787" viewBox="0 0 21.146 18.787">
  <path id="Icon_metro-bubbles" data-name="Icon metro-bubbles" d="M22.543,21.684A2.143,2.143,0,0,0,23.717,23.6v.293a4.37,4.37,0,0,1-3.767-1.322,5.9,5.9,0,0,1-1.519.2c-2.92,0-5.286-2.1-5.286-4.7s2.367-4.7,5.286-4.7,5.286,2.1,5.286,4.7a4.335,4.335,0,0,1-.979,2.725,2.132,2.132,0,0,0-.2.894ZM11.97,5.143c5.111,0,9.27,3.315,9.4,7.444a7.2,7.2,0,0,0-2.934-.615A7,7,0,0,0,13.766,13.7a5.8,5.8,0,0,0-2.017,4.365,5.632,5.632,0,0,0,.509,2.346c-.1,0-.192,0-.289,0a11.607,11.607,0,0,1-1.465-.093C8.486,22.341,6.076,22.7,3.746,22.756v-.494A3.739,3.739,0,0,0,6.1,19.24a3.545,3.545,0,0,0-.04-.527,7.189,7.189,0,0,1-3.485-5.934c0-4.217,4.208-7.636,9.4-7.636Z" transform="translate(-2.571 -5.143)" fill="#fff"/>
</svg>
