<svg xmlns="http://www.w3.org/2000/svg" width="45" height="39.981" viewBox="0 0 45 39.981">
  <path id="Icon_metro-bubbles" data-name="Icon metro-bubbles" d="M45.071,40.345a4.561,4.561,0,0,0,2.5,4.07v.623a9.3,9.3,0,0,1-8.016-2.814,12.559,12.559,0,0,1-3.234.42c-6.213,0-11.25-4.477-11.25-10s5.037-10,11.25-10,11.25,4.477,11.25,10a9.224,9.224,0,0,1-2.084,5.8,4.537,4.537,0,0,0-.416,1.9Zm-22.5-35.2c10.877,0,19.726,7.055,19.994,15.841a15.328,15.328,0,0,0-6.244-1.309,14.886,14.886,0,0,0-9.927,3.679,12.34,12.34,0,0,0-4.291,9.29,11.986,11.986,0,0,0,1.083,4.992c-.2,0-.409.008-.615.008a24.7,24.7,0,0,1-3.118-.2c-4.3,4.3-9.424,5.066-14.382,5.18V41.574c2.677-1.312,5-3.7,5-6.431a7.545,7.545,0,0,0-.085-1.121c-4.523-2.979-7.415-7.529-7.415-12.629,0-8.975,8.954-16.25,20-16.25Z" transform="translate(-2.571 -5.143)" fill="#16234a"/>
</svg>
