<svg xmlns="http://www.w3.org/2000/svg" width="20.14" height="29.295" viewBox="0 0 20.14 29.295">
  <path id="Icon_awesome-microphone" data-name="Icon awesome-microphone" d="M10.07,20.14a5.493,5.493,0,0,0,5.493-5.493V5.493a5.493,5.493,0,0,0-10.986,0v9.155A5.493,5.493,0,0,0,10.07,20.14Zm9.155-9.155h-.915a.915.915,0,0,0-.915.915v2.746a7.332,7.332,0,0,1-8.056,7.288,7.546,7.546,0,0,1-6.592-7.614V11.9a.915.915,0,0,0-.915-.915H.915A.915.915,0,0,0,0,11.9v2.3a10.385,10.385,0,0,0,8.7,10.4v1.954h-3.2a.915.915,0,0,0-.915.915v.915a.915.915,0,0,0,.915.915h9.155a.915.915,0,0,0,.915-.915v-.915a.915.915,0,0,0-.915-.915h-3.2V24.616a10.08,10.08,0,0,0,8.7-9.969V11.9A.915.915,0,0,0,19.225,10.986Z" fill="#fff"/>
</svg>
