<svg xmlns="http://www.w3.org/2000/svg" width="23.139" height="26.444" viewBox="0 0 23.139 26.444">
  <path id="Icon_awesome-paperclip" data-name="Icon awesome-paperclip" d="M2.234,24.076a8.092,8.092,0,0,1,.072-11.238L13.139,1.756a5.78,5.78,0,0,1,8.3,0,6.012,6.012,0,0,1,0,8.381l-9.444,9.651a3.854,3.854,0,0,1-5.577-.052,4,4,0,0,1,.075-5.524l7.424-7.584a.826.826,0,0,1,1.169-.012l1.181,1.156a.826.826,0,0,1,.012,1.169L8.854,16.524a.7.7,0,0,0-.033.945.551.551,0,0,0,.81.009l9.444-9.651a2.705,2.705,0,0,0,0-3.76,2.477,2.477,0,0,0-3.572,0L4.669,15.148a4.783,4.783,0,0,0-.062,6.627,4.4,4.4,0,0,0,6.356.015L19.85,12.7a.826.826,0,0,1,1.169-.013L22.2,13.842a.826.826,0,0,1,.013,1.169L13.326,24.1a7.706,7.706,0,0,1-11.093-.025Z" fill="#fff"/>
</svg>
