<svg xmlns="http://www.w3.org/2000/svg" width="16.384" height="16.238" viewBox="0 0 16.384 16.238">
  <path id="Path_17743" data-name="Path 17743" d="M14.433,1.889a2.871,2.871,0,0,0-4.046,0L2.634,9.6a.582.582,0,0,0-.141.228L1.03,14.2a.58.58,0,0,0,.126.58.587.587,0,0,0,.571.169l4.681-1.165a.585.585,0,0,0,.272-.153l6.608-6.575.1.1a1.161,1.161,0,0,1,0,1.647L11.7,10.477a.58.58,0,0,0,0,.823.587.587,0,0,0,.828,0l1.684-1.676a2.321,2.321,0,0,0,0-3.294l-.1-.1.318-.316A2.837,2.837,0,0,0,14.433,1.889Zm-8.791,15.4A5.243,5.243,0,0,1,2.3,16.005l1.5-.374a3.75,3.75,0,0,0,1.838.5A2.761,2.761,0,0,0,7.127,15.6a11.976,11.976,0,0,0,1.538-1.276L8.8,14.2a12.123,12.123,0,0,1,1.365-1.161,1.925,1.925,0,0,1,1.775-.362,1.735,1.735,0,0,1,.926.858,6.108,6.108,0,0,1,.445,1.286,1.68,1.68,0,0,0,.268.58.539.539,0,0,0,.135.131.088.088,0,0,0,.045.018,1.58,1.58,0,0,0,.737-.333c.217-.147.4-.294.588-.441.115-.091.23-.183.353-.274a5.567,5.567,0,0,1,.816-.51c.1-.052.188-.09.25-.115l.075-.029.024-.009.008,0h0s0,0,.187.552l-.186-.552a.583.583,0,1,1,.375,1.1l0,0-.036.014c-.036.015-.093.04-.169.078a4.409,4.409,0,0,0-.644.4c-.069.051-.158.122-.26.2-.212.168-.479.378-.723.543a2.63,2.63,0,0,1-1.4.535,1.415,1.415,0,0,1-1.106-.6,2.828,2.828,0,0,1-.474-1,5.105,5.105,0,0,0-.347-1.035.578.578,0,0,0-.311-.315c-.1-.037-.287-.039-.7.238a11.328,11.328,0,0,0-1.238,1.062l-.117.109a13.049,13.049,0,0,1-1.7,1.4A3.914,3.914,0,0,1,5.642,17.294Z" transform="translate(-1 -1.055)" fill="#16234a"/>
</svg>
