<svg xmlns="http://www.w3.org/2000/svg" width="24.5" height="28" viewBox="0 0 24.5 28">
  <path id="Icon_awesome-percent" data-name="Icon awesome-percent" d="M6.125,12.25A6.125,6.125,0,1,0,0,6.125,6.122,6.122,0,0,0,6.125,12.25Zm0-8.75A2.625,2.625,0,1,1,3.5,6.125,2.626,2.626,0,0,1,6.125,3.5Zm12.25,12.25A6.125,6.125,0,1,0,24.5,21.875,6.122,6.122,0,0,0,18.375,15.75Zm0,8.75A2.625,2.625,0,1,1,21,21.875,2.626,2.626,0,0,1,18.375,24.5ZM21.454.011,23.182.005a1.312,1.312,0,0,1,1.077,2.067L4.233,27.431a1.31,1.31,0,0,1-1.072.558l-1.827.005A1.313,1.313,0,0,1,.257,25.927L20.382.569A1.31,1.31,0,0,1,21.454.011Z" fill="#f8b84e"/>
</svg>
