<svg xmlns="http://www.w3.org/2000/svg" width="16.277" height="16.277" viewBox="0 0 16.277 16.277">
  <path id="Icon_awesome-phone-alt" data-name="Icon awesome-phone-alt" d="M15.813,11.5,12.252,9.976a.763.763,0,0,0-.89.219L9.785,12.122A11.784,11.784,0,0,1,4.152,6.489L6.079,4.912a.761.761,0,0,0,.219-.89L4.772.462A.768.768,0,0,0,3.9.02L.591.783A.763.763,0,0,0,0,1.526,14.75,14.75,0,0,0,14.751,16.278a.763.763,0,0,0,.744-.591l.763-3.306a.772.772,0,0,0-.445-.877Z" transform="translate(0 0)" fill="#16234a"/>
</svg>
