<svg xmlns="http://www.w3.org/2000/svg" width="23.5" height="23.5" viewBox="0 0 23.5 23.5">
  <path id="Icon_awesome-plus" data-name="Icon awesome-plus" d="M21.821,11.482H14.268V3.929A1.679,1.679,0,0,0,12.589,2.25H10.911A1.679,1.679,0,0,0,9.232,3.929v7.554H1.679A1.679,1.679,0,0,0,0,13.161v1.679a1.679,1.679,0,0,0,1.679,1.679H9.232v7.554a1.679,1.679,0,0,0,1.679,1.679h1.679a1.679,1.679,0,0,0,1.679-1.679V16.518h7.554A1.679,1.679,0,0,0,23.5,14.839V13.161A1.679,1.679,0,0,0,21.821,11.482Z" transform="translate(0 -2.25)" fill="#fff"/>
</svg>
