<svg xmlns="http://www.w3.org/2000/svg" width="23.68" height="23.68" viewBox="0 0 23.68 23.68">
  <path id="Icon_awesome-plus-circle" data-name="Icon awesome-plus-circle" d="M12.4.563A11.84,11.84,0,1,0,24.243,12.4,11.838,11.838,0,0,0,12.4.563Zm6.875,13.177a.575.575,0,0,1-.573.573H14.312V18.7a.575.575,0,0,1-.573.573H11.066a.575.575,0,0,1-.573-.573V14.312H6.1a.575.575,0,0,1-.573-.573V11.066a.575.575,0,0,1,.573-.573h4.392V6.1a.575.575,0,0,1,.573-.573h2.674a.575.575,0,0,1,.573.573v4.392H18.7a.575.575,0,0,1,.573.573Z" transform="translate(-0.563 -0.563)" fill="#fff"/>
</svg>
