<svg xmlns="http://www.w3.org/2000/svg" width="22.285" height="22.285" viewBox="0 0 22.285 22.285">
  <path id="Icon_awesome-question-circle" data-name="Icon awesome-question-circle" d="M22.847,11.7A11.142,11.142,0,1,1,11.7.563,11.142,11.142,0,0,1,22.847,11.7ZM12,4.247A5.819,5.819,0,0,0,6.767,7.111a.54.54,0,0,0,.122.73L8.448,9.024a.539.539,0,0,0,.749-.1C10,7.91,10.55,7.32,11.772,7.32c.918,0,2.053.591,2.053,1.481,0,.673-.555,1.018-1.462,1.526-1.057.592-2.455,1.33-2.455,3.175v.18a.539.539,0,0,0,.539.539h2.516a.539.539,0,0,0,.539-.539v-.06c0-1.279,3.737-1.332,3.737-4.792C17.239,6.223,14.536,4.247,12,4.247Zm-.3,11.142a2.067,2.067,0,1,0,2.067,2.067A2.069,2.069,0,0,0,11.7,15.389Z" transform="translate(-0.563 -0.563)" fill="#fff"/>
</svg>
