<svg xmlns="http://www.w3.org/2000/svg" width="52.38" height="45.833" viewBox="0 0 52.38 45.833">
  <path id="Icon_awesome-quote-left" data-name="Icon awesome-quote-left" d="M47.47,25.166H39.285V18.619a6.554,6.554,0,0,1,6.548-6.548h.818a2.449,2.449,0,0,0,2.455-2.455V4.705A2.449,2.449,0,0,0,46.651,2.25h-.818A16.364,16.364,0,0,0,29.464,18.619V43.172a4.912,4.912,0,0,0,4.911,4.911h13.1a4.912,4.912,0,0,0,4.911-4.911v-13.1A4.912,4.912,0,0,0,47.47,25.166Zm-29.464,0H9.821V18.619a6.554,6.554,0,0,1,6.548-6.548h.818a2.449,2.449,0,0,0,2.455-2.455V4.705A2.449,2.449,0,0,0,17.187,2.25h-.818A16.364,16.364,0,0,0,0,18.619V43.172a4.912,4.912,0,0,0,4.911,4.911h13.1a4.912,4.912,0,0,0,4.911-4.911v-13.1A4.912,4.912,0,0,0,18.006,25.166Z" transform="translate(0 -2.25)" fill="#f8b84e"/>
</svg>
