<svg xmlns="http://www.w3.org/2000/svg" width="23.256" height="23.625" viewBox="0 0 23.256 23.625">
  <path id="Icon_awesome-flag" data-name="Icon awesome-flag" d="M16.323,4.558c-2.473,0-4.515-1.6-7.624-1.6a8.968,8.968,0,0,0-3.14.554A2.584,2.584,0,1,0,1.67,4.7V22.518a1.107,1.107,0,0,0,1.107,1.107h.738a1.107,1.107,0,0,0,1.107-1.107V18.162A12.892,12.892,0,0,1,9.9,17.141c2.473,0,4.515,1.6,7.624,1.6a9.66,9.66,0,0,0,5.653-1.885,1.474,1.474,0,0,0,.639-1.216V4.427a1.476,1.476,0,0,0-2.1-1.339,13.434,13.434,0,0,1-5.4,1.47Z" transform="translate(-0.563)" fill="#fff"/>
</svg>
