<svg xmlns="http://www.w3.org/2000/svg" width="24.889" height="26" viewBox="0 0 24.889 26">
  <path id="Icon_awesome-cog" data-name="Icon awesome-cog" d="M25.882,16.694,23.649,15.4a10.1,10.1,0,0,0,0-3.68l2.233-1.29a.634.634,0,0,0,.288-.734A13.055,13.055,0,0,0,23.3,4.742a.631.631,0,0,0-.776-.121l-2.233,1.29a9.893,9.893,0,0,0-3.187-1.84V1.5a.628.628,0,0,0-.493-.613,13.178,13.178,0,0,0-5.724,0A.628.628,0,0,0,10.4,1.5V4.076a10.2,10.2,0,0,0-3.187,1.84L4.983,4.627a.623.623,0,0,0-.776.121A12.977,12.977,0,0,0,1.34,9.706a.627.627,0,0,0,.288.734l2.233,1.29a10.1,10.1,0,0,0,0,3.68L1.628,16.7a.634.634,0,0,0-.288.734,13.055,13.055,0,0,0,2.867,4.959.631.631,0,0,0,.776.121l2.233-1.289a9.893,9.893,0,0,0,3.187,1.84v2.579a.628.628,0,0,0,.493.613,13.178,13.178,0,0,0,5.724,0,.628.628,0,0,0,.493-.613V23.062a10.2,10.2,0,0,0,3.187-1.84l2.233,1.289a.623.623,0,0,0,.776-.121,12.977,12.977,0,0,0,2.867-4.959.647.647,0,0,0-.294-.739Zm-12.13,1.064a4.193,4.193,0,1,1,4.193-4.193A4.2,4.2,0,0,1,13.753,17.758Z" transform="translate(-1.311 -0.57)" fill="#fff"/>
</svg>
