<svg xmlns="http://www.w3.org/2000/svg" width="24.268" height="24.268" viewBox="0 0 24.268 24.268">
  <path id="Icon_awesome-smile" data-name="Icon awesome-smile" d="M12.134.563A12.134,12.134,0,1,0,24.268,12.7,12.132,12.132,0,0,0,12.134.563Zm3.914,8.22a1.566,1.566,0,1,1-1.566,1.566A1.564,1.564,0,0,1,16.048,8.782Zm-7.828,0a1.566,1.566,0,1,1-1.566,1.566A1.564,1.564,0,0,1,8.22,8.782Zm9.531,8.327a7.309,7.309,0,0,1-11.234,0,.783.783,0,0,1,1.2-1,5.749,5.749,0,0,0,8.827,0A.783.783,0,0,1,17.751,17.11Z" transform="translate(0 -0.563)" fill="#fff"/>
</svg>
