<svg xmlns="http://www.w3.org/2000/svg" width="47.549" height="35.662" viewBox="0 0 47.549 35.662">
  <path id="Icon_awesome-chart-line" data-name="Icon awesome-chart-line" d="M46.064,34.218H5.944V5.986A1.486,1.486,0,0,0,4.458,4.5H1.486A1.486,1.486,0,0,0,0,5.986v31.2a2.972,2.972,0,0,0,2.972,2.972H46.064a1.486,1.486,0,0,0,1.486-1.486V35.7A1.486,1.486,0,0,0,46.064,34.218ZM43.092,7.472H32.127a2.229,2.229,0,0,0-1.576,3.8l3.009,3.009L26.747,21.1l-6.814-6.814a2.971,2.971,0,0,0-4.2,0L9.351,20.666a1.486,1.486,0,0,0,0,2.1l2.1,2.1a1.486,1.486,0,0,0,2.1,0l4.278-4.279L24.645,27.4a2.971,2.971,0,0,0,4.2,0l8.916-8.916L40.772,21.5a2.229,2.229,0,0,0,3.8-1.576V8.958A1.484,1.484,0,0,0,43.092,7.472Z" transform="translate(0 -4.5)" fill="#fff"/>
</svg>
