<svg xmlns="http://www.w3.org/2000/svg" width="37.301" height="44.761" viewBox="0 0 37.301 44.761">
  <path id="Icon_ionic-md-flag" data-name="Icon ionic-md-flag" d="M41.719,6.738a45.884,45.884,0,0,1-5.782.49,46.563,46.563,0,0,1-9.5-1.422,48.488,48.488,0,0,0-9.8-1.306c-6.831,0-9.15,1.41-9.4,1.562L6.75,6.4V49.261h5.6V28.489a35.36,35.36,0,0,1,4.3-.233c3.182,0,6.155,1.166,9.3,1.807A50,50,0,0,0,36.078,31.4a46.262,46.262,0,0,0,5.642-.466c.874-.1,1.632-.2,2.331-.315V6.388C43.468,6.5,42.594,6.633,41.719,6.738Z" transform="translate(-6.75 -4.5)" fill="#fff"/>
</svg>
